<?xml version="1.0" standalone="no"?>
 <!DOCTYPE svg PUBLIC "-//W3C//DTD SVG 1.1//EN" 
 "http://www.w3.org/Graphics/SVG/1.1/DTD/svg11.dtd"> 
<svg
  xmlns:svg="http://www.w3.org/2000/svg"
  xmlns="http://www.w3.org/2000/svg"
  xmlns:xlink="http://www.w3.org/1999/xlink"
  version="1.1"
  width="250.0122mm" height="224.9932mm" viewBox="0.0000 0.0000 250.0122 224.9932">
<title>SVG Image created as GaggiaBoard_V3.svg date 2023/09/07 22:50:56 </title>
  <desc>Image generated by Eeschema-SVG </desc>
<g style="fill:#000000; fill-opacity:1.0000;stroke:#000000; stroke-opacity:1.0000;
stroke-linecap:round; stroke-linejoin:round;"
 transform="translate(0 0) scale(1 1)">
</g>
<g style="fill:#F5F4EF; fill-opacity:0.0; 
stroke:#F5F4EF; stroke-width:0.0000; stroke-opacity:1; 
stroke-linecap:round; stroke-linejoin:round;">
</g>
<g style="fill:#F5F4EF; fill-opacity:1.0000; 
stroke:#F5F4EF; stroke-width:0.0001; stroke-opacity:1; 
stroke-linecap:round; stroke-linejoin:round;">
<rect x="0.000000" y="0.000000" width="250.012200" height="224.993200" rx="0.000000" />
</g>
<g style="fill:#F5F4EF; fill-opacity:1.0000; 
stroke:#F5F4EF; stroke-width:0.1524; stroke-opacity:1; 
stroke-linecap:round; stroke-linejoin:round;">
</g>
<g style="fill:#FFFFFF; fill-opacity:0.0000; 
stroke:#FFFFFF; stroke-width:0.1524; stroke-opacity:1; 
stroke-linecap:round; stroke-linejoin:round;">
</g>
<g style="fill:#FFFFFF; fill-opacity:0.0000; 
stroke:#FFFFFF; stroke-width:0.0001; stroke-opacity:1; 
stroke-linecap:round; stroke-linejoin:round;">
<rect x="25.400000" y="25.400000" width="12.700000" height="3.810000" rx="0.000000" />
</g>
<g style="fill:#FFFFFF; fill-opacity:0.0000; 
stroke:#FFFFFF; stroke-width:0.1524; stroke-opacity:1; 
stroke-linecap:round; stroke-linejoin:round;">
</g>
<g style="fill:#FFFFFF; fill-opacity:0.0000; 
stroke:#FFFFFF; stroke-width:0.0001; stroke-opacity:1; 
stroke-linecap:round; stroke-linejoin:round;">
<rect x="76.200000" y="25.400000" width="12.700000" height="3.810000" rx="0.000000" />
</g>
<g style="fill:#FFFFFF; fill-opacity:0.0000; 
stroke:#FFFFFF; stroke-width:0.1524; stroke-opacity:1; 
stroke-linecap:round; stroke-linejoin:round;">
</g>
<g style="fill:#840000; fill-opacity:1.0000; 
stroke:#840000; stroke-width:0.1524; stroke-opacity:1; 
stroke-linecap:round; stroke-linejoin:round;">
</g>
<g style="fill:#840000; fill-opacity:0.0; 
stroke:#840000; stroke-width:0.2540; stroke-opacity:1; 
stroke-linecap:round; stroke-linejoin:round;">
<rect x="25.400000" y="25.400000" width="12.700000" height="3.810000" rx="0.000000" />
</g>
<g style="fill:#006464; fill-opacity:0.0; 
stroke:#006464; stroke-width:0.2540; stroke-opacity:1; 
stroke-linecap:round; stroke-linejoin:round;">
<text x="25.4000" y="24.6884"
textLength="17.9248" font-size="1.6933" lengthAdjust="spacingAndGlyphs"
text-anchor="start" opacity="0">GaggiaBoard_V3_1</text>
<g class="stroked-text"><desc>GaggiaBoard_V3_1</desc>
<path d="M26.5347 23.3101
L26.4137 23.2496
" />
<path d="M26.4137 23.2496
L26.2323 23.2496
" />
<path d="M26.2323 23.2496
L26.0509 23.3101
" />
<path d="M26.0509 23.3101
L25.9299 23.4311
" />
<path d="M25.9299 23.4311
L25.8694 23.5520
" />
<path d="M25.8694 23.5520
L25.8090 23.7939
" />
<path d="M25.8090 23.7939
L25.8090 23.9753
" />
<path d="M25.8090 23.9753
L25.8694 24.2172
" />
<path d="M25.8694 24.2172
L25.9299 24.3382
" />
<path d="M25.9299 24.3382
L26.0509 24.4592
" />
<path d="M26.0509 24.4592
L26.2323 24.5196
" />
<path d="M26.2323 24.5196
L26.3532 24.5196
" />
<path d="M26.3532 24.5196
L26.5347 24.4592
" />
<path d="M26.5347 24.4592
L26.5951 24.3987
" />
<path d="M26.5951 24.3987
L26.5951 23.9753
" />
<path d="M26.5951 23.9753
L26.3532 23.9753
" />
<path d="M27.6837 24.5196
L27.6837 23.8544
" />
<path d="M27.6837 23.8544
L27.6232 23.7334
" />
<path d="M27.6232 23.7334
L27.5023 23.6730
" />
<path d="M27.5023 23.6730
L27.2604 23.6730
" />
<path d="M27.2604 23.6730
L27.1394 23.7334
" />
<path d="M27.6837 24.4592
L27.5628 24.5196
" />
<path d="M27.5628 24.5196
L27.2604 24.5196
" />
<path d="M27.2604 24.5196
L27.1394 24.4592
" />
<path d="M27.1394 24.4592
L27.0790 24.3382
" />
<path d="M27.0790 24.3382
L27.0790 24.2172
" />
<path d="M27.0790 24.2172
L27.1394 24.0963
" />
<path d="M27.1394 24.0963
L27.2604 24.0358
" />
<path d="M27.2604 24.0358
L27.5628 24.0358
" />
<path d="M27.5628 24.0358
L27.6837 23.9753
" />
<path d="M28.8327 23.6730
L28.8327 24.7011
" />
<path d="M28.8327 24.7011
L28.7722 24.8220
" />
<path d="M28.7722 24.8220
L28.7118 24.8825
" />
<path d="M28.7118 24.8825
L28.5908 24.9430
" />
<path d="M28.5908 24.9430
L28.4094 24.9430
" />
<path d="M28.4094 24.9430
L28.2884 24.8825
" />
<path d="M28.8327 24.4592
L28.7118 24.5196
" />
<path d="M28.7118 24.5196
L28.4699 24.5196
" />
<path d="M28.4699 24.5196
L28.3489 24.4592
" />
<path d="M28.3489 24.4592
L28.2884 24.3987
" />
<path d="M28.2884 24.3987
L28.2280 24.2777
" />
<path d="M28.2280 24.2777
L28.2280 23.9149
" />
<path d="M28.2280 23.9149
L28.2884 23.7939
" />
<path d="M28.2884 23.7939
L28.3489 23.7334
" />
<path d="M28.3489 23.7334
L28.4699 23.6730
" />
<path d="M28.4699 23.6730
L28.7118 23.6730
" />
<path d="M28.7118 23.6730
L28.8327 23.7334
" />
<path d="M29.9817 23.6730
L29.9817 24.7011
" />
<path d="M29.9817 24.7011
L29.9212 24.8220
" />
<path d="M29.9212 24.8220
L29.8608 24.8825
" />
<path d="M29.8608 24.8825
L29.7398 24.9430
" />
<path d="M29.7398 24.9430
L29.5584 24.9430
" />
<path d="M29.5584 24.9430
L29.4374 24.8825
" />
<path d="M29.9817 24.4592
L29.8608 24.5196
" />
<path d="M29.8608 24.5196
L29.6189 24.5196
" />
<path d="M29.6189 24.5196
L29.4979 24.4592
" />
<path d="M29.4979 24.4592
L29.4374 24.3987
" />
<path d="M29.4374 24.3987
L29.3770 24.2777
" />
<path d="M29.3770 24.2777
L29.3770 23.9149
" />
<path d="M29.3770 23.9149
L29.4374 23.7939
" />
<path d="M29.4374 23.7939
L29.4979 23.7334
" />
<path d="M29.4979 23.7334
L29.6189 23.6730
" />
<path d="M29.6189 23.6730
L29.8608 23.6730
" />
<path d="M29.8608 23.6730
L29.9817 23.7334
" />
<path d="M30.5864 24.5196
L30.5864 23.6730
" />
<path d="M30.5864 23.2496
L30.5260 23.3101
" />
<path d="M30.5260 23.3101
L30.5864 23.3706
" />
<path d="M30.5864 23.3706
L30.6469 23.3101
" />
<path d="M30.6469 23.3101
L30.5864 23.2496
" />
<path d="M30.5864 23.2496
L30.5864 23.3706
" />
<path d="M31.7355 24.5196
L31.7355 23.8544
" />
<path d="M31.7355 23.8544
L31.6750 23.7334
" />
<path d="M31.6750 23.7334
L31.5541 23.6730
" />
<path d="M31.5541 23.6730
L31.3122 23.6730
" />
<path d="M31.3122 23.6730
L31.1912 23.7334
" />
<path d="M31.7355 24.4592
L31.6146 24.5196
" />
<path d="M31.6146 24.5196
L31.3122 24.5196
" />
<path d="M31.3122 24.5196
L31.1912 24.4592
" />
<path d="M31.1912 24.4592
L31.1308 24.3382
" />
<path d="M31.1308 24.3382
L31.1308 24.2172
" />
<path d="M31.1308 24.2172
L31.1912 24.0963
" />
<path d="M31.1912 24.0963
L31.3122 24.0358
" />
<path d="M31.3122 24.0358
L31.6146 24.0358
" />
<path d="M31.6146 24.0358
L31.7355 23.9753
" />
<path d="M32.7636 23.8544
L32.9450 23.9149
" />
<path d="M32.9450 23.9149
L33.0055 23.9753
" />
<path d="M33.0055 23.9753
L33.0659 24.0963
" />
<path d="M33.0659 24.0963
L33.0659 24.2777
" />
<path d="M33.0659 24.2777
L33.0055 24.3987
" />
<path d="M33.0055 24.3987
L32.9450 24.4592
" />
<path d="M32.9450 24.4592
L32.8240 24.5196
" />
<path d="M32.8240 24.5196
L32.3402 24.5196
" />
<path d="M32.3402 24.5196
L32.3402 23.2496
" />
<path d="M32.3402 23.2496
L32.7636 23.2496
" />
<path d="M32.7636 23.2496
L32.8845 23.3101
" />
<path d="M32.8845 23.3101
L32.9450 23.3706
" />
<path d="M32.9450 23.3706
L33.0055 23.4915
" />
<path d="M33.0055 23.4915
L33.0055 23.6125
" />
<path d="M33.0055 23.6125
L32.9450 23.7334
" />
<path d="M32.9450 23.7334
L32.8845 23.7939
" />
<path d="M32.8845 23.7939
L32.7636 23.8544
" />
<path d="M32.7636 23.8544
L32.3402 23.8544
" />
<path d="M33.7917 24.5196
L33.6707 24.4592
" />
<path d="M33.6707 24.4592
L33.6102 24.3987
" />
<path d="M33.6102 24.3987
L33.5498 24.2777
" />
<path d="M33.5498 24.2777
L33.5498 23.9149
" />
<path d="M33.5498 23.9149
L33.6102 23.7939
" />
<path d="M33.6102 23.7939
L33.6707 23.7334
" />
<path d="M33.6707 23.7334
L33.7917 23.6730
" />
<path d="M33.7917 23.6730
L33.9731 23.6730
" />
<path d="M33.9731 23.6730
L34.0940 23.7334
" />
<path d="M34.0940 23.7334
L34.1545 23.7939
" />
<path d="M34.1545 23.7939
L34.2150 23.9149
" />
<path d="M34.2150 23.9149
L34.2150 24.2777
" />
<path d="M34.2150 24.2777
L34.1545 24.3987
" />
<path d="M34.1545 24.3987
L34.0940 24.4592
" />
<path d="M34.0940 24.4592
L33.9731 24.5196
" />
<path d="M33.9731 24.5196
L33.7917 24.5196
" />
<path d="M35.3035 24.5196
L35.3035 23.8544
" />
<path d="M35.3035 23.8544
L35.2430 23.7334
" />
<path d="M35.2430 23.7334
L35.1221 23.6730
" />
<path d="M35.1221 23.6730
L34.8802 23.6730
" />
<path d="M34.8802 23.6730
L34.7592 23.7334
" />
<path d="M35.3035 24.4592
L35.1826 24.5196
" />
<path d="M35.1826 24.5196
L34.8802 24.5196
" />
<path d="M34.8802 24.5196
L34.7592 24.4592
" />
<path d="M34.7592 24.4592
L34.6988 24.3382
" />
<path d="M34.6988 24.3382
L34.6988 24.2172
" />
<path d="M34.6988 24.2172
L34.7592 24.0963
" />
<path d="M34.7592 24.0963
L34.8802 24.0358
" />
<path d="M34.8802 24.0358
L35.1826 24.0358
" />
<path d="M35.1826 24.0358
L35.3035 23.9753
" />
<path d="M35.9082 24.5196
L35.9082 23.6730
" />
<path d="M35.9082 23.9149
L35.9687 23.7939
" />
<path d="M35.9687 23.7939
L36.0292 23.7334
" />
<path d="M36.0292 23.7334
L36.1501 23.6730
" />
<path d="M36.1501 23.6730
L36.2711 23.6730
" />
<path d="M37.2387 24.5196
L37.2387 23.2496
" />
<path d="M37.2387 24.4592
L37.1178 24.5196
" />
<path d="M37.1178 24.5196
L36.8759 24.5196
" />
<path d="M36.8759 24.5196
L36.7549 24.4592
" />
<path d="M36.7549 24.4592
L36.6944 24.3987
" />
<path d="M36.6944 24.3987
L36.6340 24.2777
" />
<path d="M36.6340 24.2777
L36.6340 23.9149
" />
<path d="M36.6340 23.9149
L36.6944 23.7939
" />
<path d="M36.6944 23.7939
L36.7549 23.7334
" />
<path d="M36.7549 23.7334
L36.8759 23.6730
" />
<path d="M36.8759 23.6730
L37.1178 23.6730
" />
<path d="M37.1178 23.6730
L37.2387 23.7334
" />
<path d="M37.5411 24.6406
L38.5087 24.6406
" />
<path d="M38.6296 23.2496
L39.0529 24.5196
" />
<path d="M39.0529 24.5196
L39.4763 23.2496
" />
<path d="M39.7787 23.2496
L40.5649 23.2496
" />
<path d="M40.5649 23.2496
L40.1415 23.7334
" />
<path d="M40.1415 23.7334
L40.3230 23.7334
" />
<path d="M40.3230 23.7334
L40.4439 23.7939
" />
<path d="M40.4439 23.7939
L40.5044 23.8544
" />
<path d="M40.5044 23.8544
L40.5649 23.9753
" />
<path d="M40.5649 23.9753
L40.5649 24.2777
" />
<path d="M40.5649 24.2777
L40.5044 24.3987
" />
<path d="M40.5044 24.3987
L40.4439 24.4592
" />
<path d="M40.4439 24.4592
L40.3230 24.5196
" />
<path d="M40.3230 24.5196
L39.9601 24.5196
" />
<path d="M39.9601 24.5196
L39.8392 24.4592
" />
<path d="M39.8392 24.4592
L39.7787 24.3987
" />
<path d="M40.8068 24.6406
L41.7744 24.6406
" />
<path d="M42.7420 24.5196
L42.0163 24.5196
" />
<path d="M42.3791 24.5196
L42.3791 23.2496
" />
<path d="M42.3791 23.2496
L42.2582 23.4311
" />
<path d="M42.2582 23.4311
L42.1372 23.5520
" />
<path d="M42.1372 23.5520
L42.0163 23.6125
" />
</g></g>
<g style="fill:#725600; fill-opacity:0.0; 
stroke:#725600; stroke-width:0.2540; stroke-opacity:1; 
stroke-linecap:round; stroke-linejoin:round;">
<text x="25.4000" y="31.0646"
textLength="32.8020" font-size="1.6933" lengthAdjust="spacingAndGlyphs"
text-anchor="start" opacity="0">File: GaggiaBoard_V3_1.kicad_sch</text>
<g class="stroked-text"><desc>File: GaggiaBoard_V3_1.kicad_sch</desc>
<path d="M26.2928 30.4465
L25.8694 30.4465
" />
<path d="M25.8694 31.1117
L25.8694 29.8417
" />
<path d="M25.8694 29.8417
L26.4742 29.8417
" />
<path d="M26.9580 31.1117
L26.9580 30.2651
" />
<path d="M26.9580 29.8417
L26.8976 29.9022
" />
<path d="M26.8976 29.9022
L26.9580 29.9627
" />
<path d="M26.9580 29.9627
L27.0185 29.9022
" />
<path d="M27.0185 29.9022
L26.9580 29.8417
" />
<path d="M26.9580 29.8417
L26.9580 29.9627
" />
<path d="M27.7443 31.1117
L27.6233 31.0513
" />
<path d="M27.6233 31.0513
L27.5628 30.9303
" />
<path d="M27.5628 30.9303
L27.5628 29.8417
" />
<path d="M28.7118 31.0513
L28.5909 31.1117
" />
<path d="M28.5909 31.1117
L28.3490 31.1117
" />
<path d="M28.3490 31.1117
L28.2280 31.0513
" />
<path d="M28.2280 31.0513
L28.1676 30.9303
" />
<path d="M28.1676 30.9303
L28.1676 30.4465
" />
<path d="M28.1676 30.4465
L28.2280 30.3255
" />
<path d="M28.2280 30.3255
L28.3490 30.2651
" />
<path d="M28.3490 30.2651
L28.5909 30.2651
" />
<path d="M28.5909 30.2651
L28.7118 30.3255
" />
<path d="M28.7118 30.3255
L28.7723 30.4465
" />
<path d="M28.7723 30.4465
L28.7723 30.5674
" />
<path d="M28.7723 30.5674
L28.1676 30.6884
" />
<path d="M29.3166 30.9908
L29.3771 31.0513
" />
<path d="M29.3771 31.0513
L29.3166 31.1117
" />
<path d="M29.3166 31.1117
L29.2562 31.0513
" />
<path d="M29.2562 31.0513
L29.3166 30.9908
" />
<path d="M29.3166 30.9908
L29.3166 31.1117
" />
<path d="M29.3166 30.3255
L29.3771 30.3860
" />
<path d="M29.3771 30.3860
L29.3166 30.4465
" />
<path d="M29.3166 30.4465
L29.2562 30.3860
" />
<path d="M29.2562 30.3860
L29.3166 30.3255
" />
<path d="M29.3166 30.3255
L29.3166 30.4465
" />
<path d="M31.5543 29.9022
L31.4333 29.8417
" />
<path d="M31.4333 29.8417
L31.2519 29.8417
" />
<path d="M31.2519 29.8417
L31.0705 29.9022
" />
<path d="M31.0705 29.9022
L30.9495 30.0232
" />
<path d="M30.9495 30.0232
L30.8890 30.1441
" />
<path d="M30.8890 30.1441
L30.8286 30.3860
" />
<path d="M30.8286 30.3860
L30.8286 30.5674
" />
<path d="M30.8286 30.5674
L30.8890 30.8093
" />
<path d="M30.8890 30.8093
L30.9495 30.9303
" />
<path d="M30.9495 30.9303
L31.0705 31.0513
" />
<path d="M31.0705 31.0513
L31.2519 31.1117
" />
<path d="M31.2519 31.1117
L31.3728 31.1117
" />
<path d="M31.3728 31.1117
L31.5543 31.0513
" />
<path d="M31.5543 31.0513
L31.6147 30.9908
" />
<path d="M31.6147 30.9908
L31.6147 30.5674
" />
<path d="M31.6147 30.5674
L31.3728 30.5674
" />
<path d="M32.7033 31.1117
L32.7033 30.4465
" />
<path d="M32.7033 30.4465
L32.6428 30.3255
" />
<path d="M32.6428 30.3255
L32.5219 30.2651
" />
<path d="M32.5219 30.2651
L32.2800 30.2651
" />
<path d="M32.2800 30.2651
L32.1590 30.3255
" />
<path d="M32.7033 31.0513
L32.5824 31.1117
" />
<path d="M32.5824 31.1117
L32.2800 31.1117
" />
<path d="M32.2800 31.1117
L32.1590 31.0513
" />
<path d="M32.1590 31.0513
L32.0986 30.9303
" />
<path d="M32.0986 30.9303
L32.0986 30.8093
" />
<path d="M32.0986 30.8093
L32.1590 30.6884
" />
<path d="M32.1590 30.6884
L32.2800 30.6279
" />
<path d="M32.2800 30.6279
L32.5824 30.6279
" />
<path d="M32.5824 30.6279
L32.7033 30.5674
" />
<path d="M33.8523 30.2651
L33.8523 31.2932
" />
<path d="M33.8523 31.2932
L33.7918 31.4141
" />
<path d="M33.7918 31.4141
L33.7314 31.4746
" />
<path d="M33.7314 31.4746
L33.6104 31.5351
" />
<path d="M33.6104 31.5351
L33.4290 31.5351
" />
<path d="M33.4290 31.5351
L33.3080 31.4746
" />
<path d="M33.8523 31.0513
L33.7314 31.1117
" />
<path d="M33.7314 31.1117
L33.4895 31.1117
" />
<path d="M33.4895 31.1117
L33.3685 31.0513
" />
<path d="M33.3685 31.0513
L33.3080 30.9908
" />
<path d="M33.3080 30.9908
L33.2476 30.8698
" />
<path d="M33.2476 30.8698
L33.2476 30.5070
" />
<path d="M33.2476 30.5070
L33.3080 30.3860
" />
<path d="M33.3080 30.3860
L33.3685 30.3255
" />
<path d="M33.3685 30.3255
L33.4895 30.2651
" />
<path d="M33.4895 30.2651
L33.7314 30.2651
" />
<path d="M33.7314 30.2651
L33.8523 30.3255
" />
<path d="M35.0013 30.2651
L35.0013 31.2932
" />
<path d="M35.0013 31.2932
L34.9408 31.4141
" />
<path d="M34.9408 31.4141
L34.8804 31.4746
" />
<path d="M34.8804 31.4746
L34.7594 31.5351
" />
<path d="M34.7594 31.5351
L34.5780 31.5351
" />
<path d="M34.5780 31.5351
L34.4570 31.4746
" />
<path d="M35.0013 31.0513
L34.8804 31.1117
" />
<path d="M34.8804 31.1117
L34.6385 31.1117
" />
<path d="M34.6385 31.1117
L34.5175 31.0513
" />
<path d="M34.5175 31.0513
L34.4570 30.9908
" />
<path d="M34.4570 30.9908
L34.3966 30.8698
" />
<path d="M34.3966 30.8698
L34.3966 30.5070
" />
<path d="M34.3966 30.5070
L34.4570 30.3860
" />
<path d="M34.4570 30.3860
L34.5175 30.3255
" />
<path d="M34.5175 30.3255
L34.6385 30.2651
" />
<path d="M34.6385 30.2651
L34.8804 30.2651
" />
<path d="M34.8804 30.2651
L35.0013 30.3255
" />
<path d="M35.6060 31.1117
L35.6060 30.2651
" />
<path d="M35.6060 29.8417
L35.5456 29.9022
" />
<path d="M35.5456 29.9022
L35.6060 29.9627
" />
<path d="M35.6060 29.9627
L35.6665 29.9022
" />
<path d="M35.6665 29.9022
L35.6060 29.8417
" />
<path d="M35.6060 29.8417
L35.6060 29.9627
" />
<path d="M36.7551 31.1117
L36.7551 30.4465
" />
<path d="M36.7551 30.4465
L36.6946 30.3255
" />
<path d="M36.6946 30.3255
L36.5737 30.2651
" />
<path d="M36.5737 30.2651
L36.3318 30.2651
" />
<path d="M36.3318 30.2651
L36.2108 30.3255
" />
<path d="M36.7551 31.0513
L36.6342 31.1117
" />
<path d="M36.6342 31.1117
L36.3318 31.1117
" />
<path d="M36.3318 31.1117
L36.2108 31.0513
" />
<path d="M36.2108 31.0513
L36.1504 30.9303
" />
<path d="M36.1504 30.9303
L36.1504 30.8093
" />
<path d="M36.1504 30.8093
L36.2108 30.6884
" />
<path d="M36.2108 30.6884
L36.3318 30.6279
" />
<path d="M36.3318 30.6279
L36.6342 30.6279
" />
<path d="M36.6342 30.6279
L36.7551 30.5674
" />
<path d="M37.7832 30.4465
L37.9646 30.5070
" />
<path d="M37.9646 30.5070
L38.0251 30.5674
" />
<path d="M38.0251 30.5674
L38.0855 30.6884
" />
<path d="M38.0855 30.6884
L38.0855 30.8698
" />
<path d="M38.0855 30.8698
L38.0251 30.9908
" />
<path d="M38.0251 30.9908
L37.9646 31.0513
" />
<path d="M37.9646 31.0513
L37.8436 31.1117
" />
<path d="M37.8436 31.1117
L37.3598 31.1117
" />
<path d="M37.3598 31.1117
L37.3598 29.8417
" />
<path d="M37.3598 29.8417
L37.7832 29.8417
" />
<path d="M37.7832 29.8417
L37.9041 29.9022
" />
<path d="M37.9041 29.9022
L37.9646 29.9627
" />
<path d="M37.9646 29.9627
L38.0251 30.0836
" />
<path d="M38.0251 30.0836
L38.0251 30.2046
" />
<path d="M38.0251 30.2046
L37.9646 30.3255
" />
<path d="M37.9646 30.3255
L37.9041 30.3860
" />
<path d="M37.9041 30.3860
L37.7832 30.4465
" />
<path d="M37.7832 30.4465
L37.3598 30.4465
" />
<path d="M38.8113 31.1117
L38.6903 31.0513
" />
<path d="M38.6903 31.0513
L38.6298 30.9908
" />
<path d="M38.6298 30.9908
L38.5694 30.8698
" />
<path d="M38.5694 30.8698
L38.5694 30.5070
" />
<path d="M38.5694 30.5070
L38.6298 30.3860
" />
<path d="M38.6298 30.3860
L38.6903 30.3255
" />
<path d="M38.6903 30.3255
L38.8113 30.2651
" />
<path d="M38.8113 30.2651
L38.9927 30.2651
" />
<path d="M38.9927 30.2651
L39.1136 30.3255
" />
<path d="M39.1136 30.3255
L39.1741 30.3860
" />
<path d="M39.1741 30.3860
L39.2346 30.5070
" />
<path d="M39.2346 30.5070
L39.2346 30.8698
" />
<path d="M39.2346 30.8698
L39.1741 30.9908
" />
<path d="M39.1741 30.9908
L39.1136 31.0513
" />
<path d="M39.1136 31.0513
L38.9927 31.1117
" />
<path d="M38.9927 31.1117
L38.8113 31.1117
" />
<path d="M40.3231 31.1117
L40.3231 30.4465
" />
<path d="M40.3231 30.4465
L40.2626 30.3255
" />
<path d="M40.2626 30.3255
L40.1417 30.2651
" />
<path d="M40.1417 30.2651
L39.8998 30.2651
" />
<path d="M39.8998 30.2651
L39.7788 30.3255
" />
<path d="M40.3231 31.0513
L40.2022 31.1117
" />
<path d="M40.2022 31.1117
L39.8998 31.1117
" />
<path d="M39.8998 31.1117
L39.7788 31.0513
" />
<path d="M39.7788 31.0513
L39.7184 30.9303
" />
<path d="M39.7184 30.9303
L39.7184 30.8093
" />
<path d="M39.7184 30.8093
L39.7788 30.6884
" />
<path d="M39.7788 30.6884
L39.8998 30.6279
" />
<path d="M39.8998 30.6279
L40.2022 30.6279
" />
<path d="M40.2022 30.6279
L40.3231 30.5674
" />
<path d="M40.9278 31.1117
L40.9278 30.2651
" />
<path d="M40.9278 30.5070
L40.9883 30.3860
" />
<path d="M40.9883 30.3860
L41.0488 30.3255
" />
<path d="M41.0488 30.3255
L41.1697 30.2651
" />
<path d="M41.1697 30.2651
L41.2907 30.2651
" />
<path d="M42.2583 31.1117
L42.2583 29.8417
" />
<path d="M42.2583 31.0513
L42.1374 31.1117
" />
<path d="M42.1374 31.1117
L41.8955 31.1117
" />
<path d="M41.8955 31.1117
L41.7745 31.0513
" />
<path d="M41.7745 31.0513
L41.7140 30.9908
" />
<path d="M41.7140 30.9908
L41.6536 30.8698
" />
<path d="M41.6536 30.8698
L41.6536 30.5070
" />
<path d="M41.6536 30.5070
L41.7140 30.3860
" />
<path d="M41.7140 30.3860
L41.7745 30.3255
" />
<path d="M41.7745 30.3255
L41.8955 30.2651
" />
<path d="M41.8955 30.2651
L42.1374 30.2651
" />
<path d="M42.1374 30.2651
L42.2583 30.3255
" />
<path d="M42.5607 31.2327
L43.5283 31.2327
" />
<path d="M43.6492 29.8417
L44.0725 31.1117
" />
<path d="M44.0725 31.1117
L44.4959 29.8417
" />
<path d="M44.7983 29.8417
L45.5845 29.8417
" />
<path d="M45.5845 29.8417
L45.1611 30.3255
" />
<path d="M45.1611 30.3255
L45.3426 30.3255
" />
<path d="M45.3426 30.3255
L45.4635 30.3860
" />
<path d="M45.4635 30.3860
L45.5240 30.4465
" />
<path d="M45.5240 30.4465
L45.5845 30.5674
" />
<path d="M45.5845 30.5674
L45.5845 30.8698
" />
<path d="M45.5845 30.8698
L45.5240 30.9908
" />
<path d="M45.5240 30.9908
L45.4635 31.0513
" />
<path d="M45.4635 31.0513
L45.3426 31.1117
" />
<path d="M45.3426 31.1117
L44.9797 31.1117
" />
<path d="M44.9797 31.1117
L44.8588 31.0513
" />
<path d="M44.8588 31.0513
L44.7983 30.9908
" />
<path d="M45.8264 31.2327
L46.7940 31.2327
" />
<path d="M47.7616 31.1117
L47.0359 31.1117
" />
<path d="M47.3987 31.1117
L47.3987 29.8417
" />
<path d="M47.3987 29.8417
L47.2778 30.0232
" />
<path d="M47.2778 30.0232
L47.1568 30.1441
" />
<path d="M47.1568 30.1441
L47.0359 30.2046
" />
<path d="M48.3058 30.9908
L48.3663 31.0513
" />
<path d="M48.3663 31.0513
L48.3058 31.1117
" />
<path d="M48.3058 31.1117
L48.2454 31.0513
" />
<path d="M48.2454 31.0513
L48.3058 30.9908
" />
<path d="M48.3058 30.9908
L48.3058 31.1117
" />
<path d="M48.9106 31.1117
L48.9106 29.8417
" />
<path d="M49.0316 30.6279
L49.3944 31.1117
" />
<path d="M49.3944 30.2651
L48.9106 30.7489
" />
<path d="M49.9387 31.1117
L49.9387 30.2651
" />
<path d="M49.9387 29.8417
L49.8783 29.9022
" />
<path d="M49.8783 29.9022
L49.9387 29.9627
" />
<path d="M49.9387 29.9627
L49.9992 29.9022
" />
<path d="M49.9992 29.9022
L49.9387 29.8417
" />
<path d="M49.9387 29.8417
L49.9387 29.9627
" />
<path d="M51.0878 31.0513
L50.9669 31.1117
" />
<path d="M50.9669 31.1117
L50.7250 31.1117
" />
<path d="M50.7250 31.1117
L50.6040 31.0513
" />
<path d="M50.6040 31.0513
L50.5435 30.9908
" />
<path d="M50.5435 30.9908
L50.4831 30.8698
" />
<path d="M50.4831 30.8698
L50.4831 30.5070
" />
<path d="M50.4831 30.5070
L50.5435 30.3860
" />
<path d="M50.5435 30.3860
L50.6040 30.3255
" />
<path d="M50.6040 30.3255
L50.7250 30.2651
" />
<path d="M50.7250 30.2651
L50.9669 30.2651
" />
<path d="M50.9669 30.2651
L51.0878 30.3255
" />
<path d="M52.1764 31.1117
L52.1764 30.4465
" />
<path d="M52.1764 30.4465
L52.1159 30.3255
" />
<path d="M52.1159 30.3255
L51.9950 30.2651
" />
<path d="M51.9950 30.2651
L51.7531 30.2651
" />
<path d="M51.7531 30.2651
L51.6321 30.3255
" />
<path d="M52.1764 31.0513
L52.0555 31.1117
" />
<path d="M52.0555 31.1117
L51.7531 31.1117
" />
<path d="M51.7531 31.1117
L51.6321 31.0513
" />
<path d="M51.6321 31.0513
L51.5717 30.9303
" />
<path d="M51.5717 30.9303
L51.5717 30.8093
" />
<path d="M51.5717 30.8093
L51.6321 30.6884
" />
<path d="M51.6321 30.6884
L51.7531 30.6279
" />
<path d="M51.7531 30.6279
L52.0555 30.6279
" />
<path d="M52.0555 30.6279
L52.1764 30.5674
" />
<path d="M53.3254 31.1117
L53.3254 29.8417
" />
<path d="M53.3254 31.0513
L53.2045 31.1117
" />
<path d="M53.2045 31.1117
L52.9626 31.1117
" />
<path d="M52.9626 31.1117
L52.8416 31.0513
" />
<path d="M52.8416 31.0513
L52.7811 30.9908
" />
<path d="M52.7811 30.9908
L52.7207 30.8698
" />
<path d="M52.7207 30.8698
L52.7207 30.5070
" />
<path d="M52.7207 30.5070
L52.7811 30.3860
" />
<path d="M52.7811 30.3860
L52.8416 30.3255
" />
<path d="M52.8416 30.3255
L52.9626 30.2651
" />
<path d="M52.9626 30.2651
L53.2045 30.2651
" />
<path d="M53.2045 30.2651
L53.3254 30.3255
" />
<path d="M53.6278 31.2327
L54.5954 31.2327
" />
<path d="M54.8373 31.0513
L54.9582 31.1117
" />
<path d="M54.9582 31.1117
L55.2001 31.1117
" />
<path d="M55.2001 31.1117
L55.3211 31.0513
" />
<path d="M55.3211 31.0513
L55.3815 30.9303
" />
<path d="M55.3815 30.9303
L55.3815 30.8698
" />
<path d="M55.3815 30.8698
L55.3211 30.7489
" />
<path d="M55.3211 30.7489
L55.2001 30.6884
" />
<path d="M55.2001 30.6884
L55.0187 30.6884
" />
<path d="M55.0187 30.6884
L54.8977 30.6279
" />
<path d="M54.8977 30.6279
L54.8373 30.5070
" />
<path d="M54.8373 30.5070
L54.8373 30.4465
" />
<path d="M54.8373 30.4465
L54.8977 30.3255
" />
<path d="M54.8977 30.3255
L55.0187 30.2651
" />
<path d="M55.0187 30.2651
L55.2001 30.2651
" />
<path d="M55.2001 30.2651
L55.3211 30.3255
" />
<path d="M56.4701 31.0513
L56.3492 31.1117
" />
<path d="M56.3492 31.1117
L56.1073 31.1117
" />
<path d="M56.1073 31.1117
L55.9863 31.0513
" />
<path d="M55.9863 31.0513
L55.9258 30.9908
" />
<path d="M55.9258 30.9908
L55.8654 30.8698
" />
<path d="M55.8654 30.8698
L55.8654 30.5070
" />
<path d="M55.8654 30.5070
L55.9258 30.3860
" />
<path d="M55.9258 30.3860
L55.9863 30.3255
" />
<path d="M55.9863 30.3255
L56.1073 30.2651
" />
<path d="M56.1073 30.2651
L56.3492 30.2651
" />
<path d="M56.3492 30.2651
L56.4701 30.3255
" />
<path d="M57.0144 31.1117
L57.0144 29.8417
" />
<path d="M57.5587 31.1117
L57.5587 30.4465
" />
<path d="M57.5587 30.4465
L57.4982 30.3255
" />
<path d="M57.4982 30.3255
L57.3773 30.2651
" />
<path d="M57.3773 30.2651
L57.1959 30.2651
" />
<path d="M57.1959 30.2651
L57.0749 30.3255
" />
<path d="M57.0749 30.3255
L57.0144 30.3860
" />
</g></g>
<g style="fill:#725600; fill-opacity:0.0; 
stroke:#725600; stroke-width:0.1524; stroke-opacity:1; 
stroke-linecap:round; stroke-linejoin:round;">
</g>
<g style="fill:#840000; fill-opacity:0.0; 
stroke:#840000; stroke-width:0.1524; stroke-opacity:1; 
stroke-linecap:round; stroke-linejoin:round;">
</g>
<g style="fill:#840000; fill-opacity:0.0; 
stroke:#840000; stroke-width:0.2540; stroke-opacity:1; 
stroke-linecap:round; stroke-linejoin:round;">
<rect x="76.200000" y="25.400000" width="12.700000" height="3.810000" rx="0.000000" />
</g>
<g style="fill:#006464; fill-opacity:0.0; 
stroke:#006464; stroke-width:0.2540; stroke-opacity:1; 
stroke-linecap:round; stroke-linejoin:round;">
<text x="76.2000" y="24.6884"
textLength="17.9248" font-size="1.6933" lengthAdjust="spacingAndGlyphs"
text-anchor="start" opacity="0">GaggiaBoard_V3_2</text>
<g class="stroked-text"><desc>GaggiaBoard_V3_2</desc>
<path d="M77.3347 23.3101
L77.2137 23.2496
" />
<path d="M77.2137 23.2496
L77.0323 23.2496
" />
<path d="M77.0323 23.2496
L76.8509 23.3101
" />
<path d="M76.8509 23.3101
L76.7299 23.4311
" />
<path d="M76.7299 23.4311
L76.6694 23.5520
" />
<path d="M76.6694 23.5520
L76.6090 23.7939
" />
<path d="M76.6090 23.7939
L76.6090 23.9753
" />
<path d="M76.6090 23.9753
L76.6694 24.2172
" />
<path d="M76.6694 24.2172
L76.7299 24.3382
" />
<path d="M76.7299 24.3382
L76.8509 24.4592
" />
<path d="M76.8509 24.4592
L77.0323 24.5196
" />
<path d="M77.0323 24.5196
L77.1532 24.5196
" />
<path d="M77.1532 24.5196
L77.3347 24.4592
" />
<path d="M77.3347 24.4592
L77.3951 24.3987
" />
<path d="M77.3951 24.3987
L77.3951 23.9753
" />
<path d="M77.3951 23.9753
L77.1532 23.9753
" />
<path d="M78.4837 24.5196
L78.4837 23.8544
" />
<path d="M78.4837 23.8544
L78.4232 23.7334
" />
<path d="M78.4232 23.7334
L78.3023 23.6730
" />
<path d="M78.3023 23.6730
L78.0604 23.6730
" />
<path d="M78.0604 23.6730
L77.9394 23.7334
" />
<path d="M78.4837 24.4592
L78.3628 24.5196
" />
<path d="M78.3628 24.5196
L78.0604 24.5196
" />
<path d="M78.0604 24.5196
L77.9394 24.4592
" />
<path d="M77.9394 24.4592
L77.8790 24.3382
" />
<path d="M77.8790 24.3382
L77.8790 24.2172
" />
<path d="M77.8790 24.2172
L77.9394 24.0963
" />
<path d="M77.9394 24.0963
L78.0604 24.0358
" />
<path d="M78.0604 24.0358
L78.3628 24.0358
" />
<path d="M78.3628 24.0358
L78.4837 23.9753
" />
<path d="M79.6327 23.6730
L79.6327 24.7011
" />
<path d="M79.6327 24.7011
L79.5722 24.8220
" />
<path d="M79.5722 24.8220
L79.5118 24.8825
" />
<path d="M79.5118 24.8825
L79.3908 24.9430
" />
<path d="M79.3908 24.9430
L79.2094 24.9430
" />
<path d="M79.2094 24.9430
L79.0884 24.8825
" />
<path d="M79.6327 24.4592
L79.5118 24.5196
" />
<path d="M79.5118 24.5196
L79.2699 24.5196
" />
<path d="M79.2699 24.5196
L79.1489 24.4592
" />
<path d="M79.1489 24.4592
L79.0884 24.3987
" />
<path d="M79.0884 24.3987
L79.0280 24.2777
" />
<path d="M79.0280 24.2777
L79.0280 23.9149
" />
<path d="M79.0280 23.9149
L79.0884 23.7939
" />
<path d="M79.0884 23.7939
L79.1489 23.7334
" />
<path d="M79.1489 23.7334
L79.2699 23.6730
" />
<path d="M79.2699 23.6730
L79.5118 23.6730
" />
<path d="M79.5118 23.6730
L79.6327 23.7334
" />
<path d="M80.7817 23.6730
L80.7817 24.7011
" />
<path d="M80.7817 24.7011
L80.7212 24.8220
" />
<path d="M80.7212 24.8220
L80.6608 24.8825
" />
<path d="M80.6608 24.8825
L80.5398 24.9430
" />
<path d="M80.5398 24.9430
L80.3584 24.9430
" />
<path d="M80.3584 24.9430
L80.2374 24.8825
" />
<path d="M80.7817 24.4592
L80.6608 24.5196
" />
<path d="M80.6608 24.5196
L80.4189 24.5196
" />
<path d="M80.4189 24.5196
L80.2979 24.4592
" />
<path d="M80.2979 24.4592
L80.2374 24.3987
" />
<path d="M80.2374 24.3987
L80.1770 24.2777
" />
<path d="M80.1770 24.2777
L80.1770 23.9149
" />
<path d="M80.1770 23.9149
L80.2374 23.7939
" />
<path d="M80.2374 23.7939
L80.2979 23.7334
" />
<path d="M80.2979 23.7334
L80.4189 23.6730
" />
<path d="M80.4189 23.6730
L80.6608 23.6730
" />
<path d="M80.6608 23.6730
L80.7817 23.7334
" />
<path d="M81.3864 24.5196
L81.3864 23.6730
" />
<path d="M81.3864 23.2496
L81.3260 23.3101
" />
<path d="M81.3260 23.3101
L81.3864 23.3706
" />
<path d="M81.3864 23.3706
L81.4469 23.3101
" />
<path d="M81.4469 23.3101
L81.3864 23.2496
" />
<path d="M81.3864 23.2496
L81.3864 23.3706
" />
<path d="M82.5355 24.5196
L82.5355 23.8544
" />
<path d="M82.5355 23.8544
L82.4750 23.7334
" />
<path d="M82.4750 23.7334
L82.3541 23.6730
" />
<path d="M82.3541 23.6730
L82.1122 23.6730
" />
<path d="M82.1122 23.6730
L81.9912 23.7334
" />
<path d="M82.5355 24.4592
L82.4146 24.5196
" />
<path d="M82.4146 24.5196
L82.1122 24.5196
" />
<path d="M82.1122 24.5196
L81.9912 24.4592
" />
<path d="M81.9912 24.4592
L81.9308 24.3382
" />
<path d="M81.9308 24.3382
L81.9308 24.2172
" />
<path d="M81.9308 24.2172
L81.9912 24.0963
" />
<path d="M81.9912 24.0963
L82.1122 24.0358
" />
<path d="M82.1122 24.0358
L82.4146 24.0358
" />
<path d="M82.4146 24.0358
L82.5355 23.9753
" />
<path d="M83.5636 23.8544
L83.7450 23.9149
" />
<path d="M83.7450 23.9149
L83.8055 23.9753
" />
<path d="M83.8055 23.9753
L83.8659 24.0963
" />
<path d="M83.8659 24.0963
L83.8659 24.2777
" />
<path d="M83.8659 24.2777
L83.8055 24.3987
" />
<path d="M83.8055 24.3987
L83.7450 24.4592
" />
<path d="M83.7450 24.4592
L83.6240 24.5196
" />
<path d="M83.6240 24.5196
L83.1402 24.5196
" />
<path d="M83.1402 24.5196
L83.1402 23.2496
" />
<path d="M83.1402 23.2496
L83.5636 23.2496
" />
<path d="M83.5636 23.2496
L83.6845 23.3101
" />
<path d="M83.6845 23.3101
L83.7450 23.3706
" />
<path d="M83.7450 23.3706
L83.8055 23.4915
" />
<path d="M83.8055 23.4915
L83.8055 23.6125
" />
<path d="M83.8055 23.6125
L83.7450 23.7334
" />
<path d="M83.7450 23.7334
L83.6845 23.7939
" />
<path d="M83.6845 23.7939
L83.5636 23.8544
" />
<path d="M83.5636 23.8544
L83.1402 23.8544
" />
<path d="M84.5917 24.5196
L84.4707 24.4592
" />
<path d="M84.4707 24.4592
L84.4102 24.3987
" />
<path d="M84.4102 24.3987
L84.3498 24.2777
" />
<path d="M84.3498 24.2777
L84.3498 23.9149
" />
<path d="M84.3498 23.9149
L84.4102 23.7939
" />
<path d="M84.4102 23.7939
L84.4707 23.7334
" />
<path d="M84.4707 23.7334
L84.5917 23.6730
" />
<path d="M84.5917 23.6730
L84.7731 23.6730
" />
<path d="M84.7731 23.6730
L84.8940 23.7334
" />
<path d="M84.8940 23.7334
L84.9545 23.7939
" />
<path d="M84.9545 23.7939
L85.0150 23.9149
" />
<path d="M85.0150 23.9149
L85.0150 24.2777
" />
<path d="M85.0150 24.2777
L84.9545 24.3987
" />
<path d="M84.9545 24.3987
L84.8940 24.4592
" />
<path d="M84.8940 24.4592
L84.7731 24.5196
" />
<path d="M84.7731 24.5196
L84.5917 24.5196
" />
<path d="M86.1035 24.5196
L86.1035 23.8544
" />
<path d="M86.1035 23.8544
L86.0430 23.7334
" />
<path d="M86.0430 23.7334
L85.9221 23.6730
" />
<path d="M85.9221 23.6730
L85.6802 23.6730
" />
<path d="M85.6802 23.6730
L85.5592 23.7334
" />
<path d="M86.1035 24.4592
L85.9826 24.5196
" />
<path d="M85.9826 24.5196
L85.6802 24.5196
" />
<path d="M85.6802 24.5196
L85.5592 24.4592
" />
<path d="M85.5592 24.4592
L85.4988 24.3382
" />
<path d="M85.4988 24.3382
L85.4988 24.2172
" />
<path d="M85.4988 24.2172
L85.5592 24.0963
" />
<path d="M85.5592 24.0963
L85.6802 24.0358
" />
<path d="M85.6802 24.0358
L85.9826 24.0358
" />
<path d="M85.9826 24.0358
L86.1035 23.9753
" />
<path d="M86.7082 24.5196
L86.7082 23.6730
" />
<path d="M86.7082 23.9149
L86.7687 23.7939
" />
<path d="M86.7687 23.7939
L86.8292 23.7334
" />
<path d="M86.8292 23.7334
L86.9501 23.6730
" />
<path d="M86.9501 23.6730
L87.0711 23.6730
" />
<path d="M88.0387 24.5196
L88.0387 23.2496
" />
<path d="M88.0387 24.4592
L87.9178 24.5196
" />
<path d="M87.9178 24.5196
L87.6759 24.5196
" />
<path d="M87.6759 24.5196
L87.5549 24.4592
" />
<path d="M87.5549 24.4592
L87.4944 24.3987
" />
<path d="M87.4944 24.3987
L87.4340 24.2777
" />
<path d="M87.4340 24.2777
L87.4340 23.9149
" />
<path d="M87.4340 23.9149
L87.4944 23.7939
" />
<path d="M87.4944 23.7939
L87.5549 23.7334
" />
<path d="M87.5549 23.7334
L87.6759 23.6730
" />
<path d="M87.6759 23.6730
L87.9178 23.6730
" />
<path d="M87.9178 23.6730
L88.0387 23.7334
" />
<path d="M88.3411 24.6406
L89.3087 24.6406
" />
<path d="M89.4296 23.2496
L89.8529 24.5196
" />
<path d="M89.8529 24.5196
L90.2763 23.2496
" />
<path d="M90.5787 23.2496
L91.3649 23.2496
" />
<path d="M91.3649 23.2496
L90.9415 23.7334
" />
<path d="M90.9415 23.7334
L91.1230 23.7334
" />
<path d="M91.1230 23.7334
L91.2439 23.7939
" />
<path d="M91.2439 23.7939
L91.3044 23.8544
" />
<path d="M91.3044 23.8544
L91.3649 23.9753
" />
<path d="M91.3649 23.9753
L91.3649 24.2777
" />
<path d="M91.3649 24.2777
L91.3044 24.3987
" />
<path d="M91.3044 24.3987
L91.2439 24.4592
" />
<path d="M91.2439 24.4592
L91.1230 24.5196
" />
<path d="M91.1230 24.5196
L90.7601 24.5196
" />
<path d="M90.7601 24.5196
L90.6392 24.4592
" />
<path d="M90.6392 24.4592
L90.5787 24.3987
" />
<path d="M91.6068 24.6406
L92.5744 24.6406
" />
<path d="M92.8163 23.3706
L92.8767 23.3101
" />
<path d="M92.8767 23.3101
L92.9977 23.2496
" />
<path d="M92.9977 23.2496
L93.3001 23.2496
" />
<path d="M93.3001 23.2496
L93.4210 23.3101
" />
<path d="M93.4210 23.3101
L93.4815 23.3706
" />
<path d="M93.4815 23.3706
L93.5420 23.4915
" />
<path d="M93.5420 23.4915
L93.5420 23.6125
" />
<path d="M93.5420 23.6125
L93.4815 23.7939
" />
<path d="M93.4815 23.7939
L92.7558 24.5196
" />
<path d="M92.7558 24.5196
L93.5420 24.5196
" />
</g></g>
<g style="fill:#725600; fill-opacity:0.0; 
stroke:#725600; stroke-width:0.2540; stroke-opacity:1; 
stroke-linecap:round; stroke-linejoin:round;">
<text x="76.2000" y="31.0646"
textLength="32.8020" font-size="1.6933" lengthAdjust="spacingAndGlyphs"
text-anchor="start" opacity="0">File: GaggiaBoard_V3_2.kicad_sch</text>
<g class="stroked-text"><desc>File: GaggiaBoard_V3_2.kicad_sch</desc>
<path d="M77.0928 30.4465
L76.6694 30.4465
" />
<path d="M76.6694 31.1117
L76.6694 29.8417
" />
<path d="M76.6694 29.8417
L77.2742 29.8417
" />
<path d="M77.7580 31.1117
L77.7580 30.2651
" />
<path d="M77.7580 29.8417
L77.6976 29.9022
" />
<path d="M77.6976 29.9022
L77.7580 29.9627
" />
<path d="M77.7580 29.9627
L77.8185 29.9022
" />
<path d="M77.8185 29.9022
L77.7580 29.8417
" />
<path d="M77.7580 29.8417
L77.7580 29.9627
" />
<path d="M78.5443 31.1117
L78.4233 31.0513
" />
<path d="M78.4233 31.0513
L78.3628 30.9303
" />
<path d="M78.3628 30.9303
L78.3628 29.8417
" />
<path d="M79.5118 31.0513
L79.3909 31.1117
" />
<path d="M79.3909 31.1117
L79.1490 31.1117
" />
<path d="M79.1490 31.1117
L79.0280 31.0513
" />
<path d="M79.0280 31.0513
L78.9676 30.9303
" />
<path d="M78.9676 30.9303
L78.9676 30.4465
" />
<path d="M78.9676 30.4465
L79.0280 30.3255
" />
<path d="M79.0280 30.3255
L79.1490 30.2651
" />
<path d="M79.1490 30.2651
L79.3909 30.2651
" />
<path d="M79.3909 30.2651
L79.5118 30.3255
" />
<path d="M79.5118 30.3255
L79.5723 30.4465
" />
<path d="M79.5723 30.4465
L79.5723 30.5674
" />
<path d="M79.5723 30.5674
L78.9676 30.6884
" />
<path d="M80.1166 30.9908
L80.1771 31.0513
" />
<path d="M80.1771 31.0513
L80.1166 31.1117
" />
<path d="M80.1166 31.1117
L80.0562 31.0513
" />
<path d="M80.0562 31.0513
L80.1166 30.9908
" />
<path d="M80.1166 30.9908
L80.1166 31.1117
" />
<path d="M80.1166 30.3255
L80.1771 30.3860
" />
<path d="M80.1771 30.3860
L80.1166 30.4465
" />
<path d="M80.1166 30.4465
L80.0562 30.3860
" />
<path d="M80.0562 30.3860
L80.1166 30.3255
" />
<path d="M80.1166 30.3255
L80.1166 30.4465
" />
<path d="M82.3543 29.9022
L82.2333 29.8417
" />
<path d="M82.2333 29.8417
L82.0519 29.8417
" />
<path d="M82.0519 29.8417
L81.8705 29.9022
" />
<path d="M81.8705 29.9022
L81.7495 30.0232
" />
<path d="M81.7495 30.0232
L81.6890 30.1441
" />
<path d="M81.6890 30.1441
L81.6286 30.3860
" />
<path d="M81.6286 30.3860
L81.6286 30.5674
" />
<path d="M81.6286 30.5674
L81.6890 30.8093
" />
<path d="M81.6890 30.8093
L81.7495 30.9303
" />
<path d="M81.7495 30.9303
L81.8705 31.0513
" />
<path d="M81.8705 31.0513
L82.0519 31.1117
" />
<path d="M82.0519 31.1117
L82.1728 31.1117
" />
<path d="M82.1728 31.1117
L82.3543 31.0513
" />
<path d="M82.3543 31.0513
L82.4147 30.9908
" />
<path d="M82.4147 30.9908
L82.4147 30.5674
" />
<path d="M82.4147 30.5674
L82.1728 30.5674
" />
<path d="M83.5033 31.1117
L83.5033 30.4465
" />
<path d="M83.5033 30.4465
L83.4428 30.3255
" />
<path d="M83.4428 30.3255
L83.3219 30.2651
" />
<path d="M83.3219 30.2651
L83.0800 30.2651
" />
<path d="M83.0800 30.2651
L82.9590 30.3255
" />
<path d="M83.5033 31.0513
L83.3824 31.1117
" />
<path d="M83.3824 31.1117
L83.0800 31.1117
" />
<path d="M83.0800 31.1117
L82.9590 31.0513
" />
<path d="M82.9590 31.0513
L82.8986 30.9303
" />
<path d="M82.8986 30.9303
L82.8986 30.8093
" />
<path d="M82.8986 30.8093
L82.9590 30.6884
" />
<path d="M82.9590 30.6884
L83.0800 30.6279
" />
<path d="M83.0800 30.6279
L83.3824 30.6279
" />
<path d="M83.3824 30.6279
L83.5033 30.5674
" />
<path d="M84.6523 30.2651
L84.6523 31.2932
" />
<path d="M84.6523 31.2932
L84.5918 31.4141
" />
<path d="M84.5918 31.4141
L84.5314 31.4746
" />
<path d="M84.5314 31.4746
L84.4104 31.5351
" />
<path d="M84.4104 31.5351
L84.2290 31.5351
" />
<path d="M84.2290 31.5351
L84.1080 31.4746
" />
<path d="M84.6523 31.0513
L84.5314 31.1117
" />
<path d="M84.5314 31.1117
L84.2895 31.1117
" />
<path d="M84.2895 31.1117
L84.1685 31.0513
" />
<path d="M84.1685 31.0513
L84.1080 30.9908
" />
<path d="M84.1080 30.9908
L84.0476 30.8698
" />
<path d="M84.0476 30.8698
L84.0476 30.5070
" />
<path d="M84.0476 30.5070
L84.1080 30.3860
" />
<path d="M84.1080 30.3860
L84.1685 30.3255
" />
<path d="M84.1685 30.3255
L84.2895 30.2651
" />
<path d="M84.2895 30.2651
L84.5314 30.2651
" />
<path d="M84.5314 30.2651
L84.6523 30.3255
" />
<path d="M85.8013 30.2651
L85.8013 31.2932
" />
<path d="M85.8013 31.2932
L85.7408 31.4141
" />
<path d="M85.7408 31.4141
L85.6804 31.4746
" />
<path d="M85.6804 31.4746
L85.5594 31.5351
" />
<path d="M85.5594 31.5351
L85.3780 31.5351
" />
<path d="M85.3780 31.5351
L85.2570 31.4746
" />
<path d="M85.8013 31.0513
L85.6804 31.1117
" />
<path d="M85.6804 31.1117
L85.4385 31.1117
" />
<path d="M85.4385 31.1117
L85.3175 31.0513
" />
<path d="M85.3175 31.0513
L85.2570 30.9908
" />
<path d="M85.2570 30.9908
L85.1966 30.8698
" />
<path d="M85.1966 30.8698
L85.1966 30.5070
" />
<path d="M85.1966 30.5070
L85.2570 30.3860
" />
<path d="M85.2570 30.3860
L85.3175 30.3255
" />
<path d="M85.3175 30.3255
L85.4385 30.2651
" />
<path d="M85.4385 30.2651
L85.6804 30.2651
" />
<path d="M85.6804 30.2651
L85.8013 30.3255
" />
<path d="M86.4060 31.1117
L86.4060 30.2651
" />
<path d="M86.4060 29.8417
L86.3456 29.9022
" />
<path d="M86.3456 29.9022
L86.4060 29.9627
" />
<path d="M86.4060 29.9627
L86.4665 29.9022
" />
<path d="M86.4665 29.9022
L86.4060 29.8417
" />
<path d="M86.4060 29.8417
L86.4060 29.9627
" />
<path d="M87.5551 31.1117
L87.5551 30.4465
" />
<path d="M87.5551 30.4465
L87.4946 30.3255
" />
<path d="M87.4946 30.3255
L87.3737 30.2651
" />
<path d="M87.3737 30.2651
L87.1318 30.2651
" />
<path d="M87.1318 30.2651
L87.0108 30.3255
" />
<path d="M87.5551 31.0513
L87.4342 31.1117
" />
<path d="M87.4342 31.1117
L87.1318 31.1117
" />
<path d="M87.1318 31.1117
L87.0108 31.0513
" />
<path d="M87.0108 31.0513
L86.9504 30.9303
" />
<path d="M86.9504 30.9303
L86.9504 30.8093
" />
<path d="M86.9504 30.8093
L87.0108 30.6884
" />
<path d="M87.0108 30.6884
L87.1318 30.6279
" />
<path d="M87.1318 30.6279
L87.4342 30.6279
" />
<path d="M87.4342 30.6279
L87.5551 30.5674
" />
<path d="M88.5832 30.4465
L88.7646 30.5070
" />
<path d="M88.7646 30.5070
L88.8251 30.5674
" />
<path d="M88.8251 30.5674
L88.8855 30.6884
" />
<path d="M88.8855 30.6884
L88.8855 30.8698
" />
<path d="M88.8855 30.8698
L88.8251 30.9908
" />
<path d="M88.8251 30.9908
L88.7646 31.0513
" />
<path d="M88.7646 31.0513
L88.6436 31.1117
" />
<path d="M88.6436 31.1117
L88.1598 31.1117
" />
<path d="M88.1598 31.1117
L88.1598 29.8417
" />
<path d="M88.1598 29.8417
L88.5832 29.8417
" />
<path d="M88.5832 29.8417
L88.7041 29.9022
" />
<path d="M88.7041 29.9022
L88.7646 29.9627
" />
<path d="M88.7646 29.9627
L88.8251 30.0836
" />
<path d="M88.8251 30.0836
L88.8251 30.2046
" />
<path d="M88.8251 30.2046
L88.7646 30.3255
" />
<path d="M88.7646 30.3255
L88.7041 30.3860
" />
<path d="M88.7041 30.3860
L88.5832 30.4465
" />
<path d="M88.5832 30.4465
L88.1598 30.4465
" />
<path d="M89.6113 31.1117
L89.4903 31.0513
" />
<path d="M89.4903 31.0513
L89.4298 30.9908
" />
<path d="M89.4298 30.9908
L89.3694 30.8698
" />
<path d="M89.3694 30.8698
L89.3694 30.5070
" />
<path d="M89.3694 30.5070
L89.4298 30.3860
" />
<path d="M89.4298 30.3860
L89.4903 30.3255
" />
<path d="M89.4903 30.3255
L89.6113 30.2651
" />
<path d="M89.6113 30.2651
L89.7927 30.2651
" />
<path d="M89.7927 30.2651
L89.9136 30.3255
" />
<path d="M89.9136 30.3255
L89.9741 30.3860
" />
<path d="M89.9741 30.3860
L90.0346 30.5070
" />
<path d="M90.0346 30.5070
L90.0346 30.8698
" />
<path d="M90.0346 30.8698
L89.9741 30.9908
" />
<path d="M89.9741 30.9908
L89.9136 31.0513
" />
<path d="M89.9136 31.0513
L89.7927 31.1117
" />
<path d="M89.7927 31.1117
L89.6113 31.1117
" />
<path d="M91.1231 31.1117
L91.1231 30.4465
" />
<path d="M91.1231 30.4465
L91.0626 30.3255
" />
<path d="M91.0626 30.3255
L90.9417 30.2651
" />
<path d="M90.9417 30.2651
L90.6998 30.2651
" />
<path d="M90.6998 30.2651
L90.5788 30.3255
" />
<path d="M91.1231 31.0513
L91.0022 31.1117
" />
<path d="M91.0022 31.1117
L90.6998 31.1117
" />
<path d="M90.6998 31.1117
L90.5788 31.0513
" />
<path d="M90.5788 31.0513
L90.5184 30.9303
" />
<path d="M90.5184 30.9303
L90.5184 30.8093
" />
<path d="M90.5184 30.8093
L90.5788 30.6884
" />
<path d="M90.5788 30.6884
L90.6998 30.6279
" />
<path d="M90.6998 30.6279
L91.0022 30.6279
" />
<path d="M91.0022 30.6279
L91.1231 30.5674
" />
<path d="M91.7278 31.1117
L91.7278 30.2651
" />
<path d="M91.7278 30.5070
L91.7883 30.3860
" />
<path d="M91.7883 30.3860
L91.8488 30.3255
" />
<path d="M91.8488 30.3255
L91.9697 30.2651
" />
<path d="M91.9697 30.2651
L92.0907 30.2651
" />
<path d="M93.0583 31.1117
L93.0583 29.8417
" />
<path d="M93.0583 31.0513
L92.9374 31.1117
" />
<path d="M92.9374 31.1117
L92.6955 31.1117
" />
<path d="M92.6955 31.1117
L92.5745 31.0513
" />
<path d="M92.5745 31.0513
L92.5140 30.9908
" />
<path d="M92.5140 30.9908
L92.4536 30.8698
" />
<path d="M92.4536 30.8698
L92.4536 30.5070
" />
<path d="M92.4536 30.5070
L92.5140 30.3860
" />
<path d="M92.5140 30.3860
L92.5745 30.3255
" />
<path d="M92.5745 30.3255
L92.6955 30.2651
" />
<path d="M92.6955 30.2651
L92.9374 30.2651
" />
<path d="M92.9374 30.2651
L93.0583 30.3255
" />
<path d="M93.3607 31.2327
L94.3283 31.2327
" />
<path d="M94.4492 29.8417
L94.8725 31.1117
" />
<path d="M94.8725 31.1117
L95.2959 29.8417
" />
<path d="M95.5983 29.8417
L96.3845 29.8417
" />
<path d="M96.3845 29.8417
L95.9611 30.3255
" />
<path d="M95.9611 30.3255
L96.1426 30.3255
" />
<path d="M96.1426 30.3255
L96.2635 30.3860
" />
<path d="M96.2635 30.3860
L96.3240 30.4465
" />
<path d="M96.3240 30.4465
L96.3845 30.5674
" />
<path d="M96.3845 30.5674
L96.3845 30.8698
" />
<path d="M96.3845 30.8698
L96.3240 30.9908
" />
<path d="M96.3240 30.9908
L96.2635 31.0513
" />
<path d="M96.2635 31.0513
L96.1426 31.1117
" />
<path d="M96.1426 31.1117
L95.7797 31.1117
" />
<path d="M95.7797 31.1117
L95.6588 31.0513
" />
<path d="M95.6588 31.0513
L95.5983 30.9908
" />
<path d="M96.6264 31.2327
L97.5940 31.2327
" />
<path d="M97.8359 29.9627
L97.8963 29.9022
" />
<path d="M97.8963 29.9022
L98.0173 29.8417
" />
<path d="M98.0173 29.8417
L98.3197 29.8417
" />
<path d="M98.3197 29.8417
L98.4406 29.9022
" />
<path d="M98.4406 29.9022
L98.5011 29.9627
" />
<path d="M98.5011 29.9627
L98.5616 30.0836
" />
<path d="M98.5616 30.0836
L98.5616 30.2046
" />
<path d="M98.5616 30.2046
L98.5011 30.3860
" />
<path d="M98.5011 30.3860
L97.7754 31.1117
" />
<path d="M97.7754 31.1117
L98.5616 31.1117
" />
<path d="M99.1058 30.9908
L99.1663 31.0513
" />
<path d="M99.1663 31.0513
L99.1058 31.1117
" />
<path d="M99.1058 31.1117
L99.0454 31.0513
" />
<path d="M99.0454 31.0513
L99.1058 30.9908
" />
<path d="M99.1058 30.9908
L99.1058 31.1117
" />
<path d="M99.7106 31.1117
L99.7106 29.8417
" />
<path d="M99.8316 30.6279
L100.1944 31.1117
" />
<path d="M100.1944 30.2651
L99.7106 30.7489
" />
<path d="M100.7387 31.1117
L100.7387 30.2651
" />
<path d="M100.7387 29.8417
L100.6783 29.9022
" />
<path d="M100.6783 29.9022
L100.7387 29.9627
" />
<path d="M100.7387 29.9627
L100.7992 29.9022
" />
<path d="M100.7992 29.9022
L100.7387 29.8417
" />
<path d="M100.7387 29.8417
L100.7387 29.9627
" />
<path d="M101.8878 31.0513
L101.7669 31.1117
" />
<path d="M101.7669 31.1117
L101.5250 31.1117
" />
<path d="M101.5250 31.1117
L101.4040 31.0513
" />
<path d="M101.4040 31.0513
L101.3435 30.9908
" />
<path d="M101.3435 30.9908
L101.2831 30.8698
" />
<path d="M101.2831 30.8698
L101.2831 30.5070
" />
<path d="M101.2831 30.5070
L101.3435 30.3860
" />
<path d="M101.3435 30.3860
L101.4040 30.3255
" />
<path d="M101.4040 30.3255
L101.5250 30.2651
" />
<path d="M101.5250 30.2651
L101.7669 30.2651
" />
<path d="M101.7669 30.2651
L101.8878 30.3255
" />
<path d="M102.9764 31.1117
L102.9764 30.4465
" />
<path d="M102.9764 30.4465
L102.9159 30.3255
" />
<path d="M102.9159 30.3255
L102.7950 30.2651
" />
<path d="M102.7950 30.2651
L102.5531 30.2651
" />
<path d="M102.5531 30.2651
L102.4321 30.3255
" />
<path d="M102.9764 31.0513
L102.8555 31.1117
" />
<path d="M102.8555 31.1117
L102.5531 31.1117
" />
<path d="M102.5531 31.1117
L102.4321 31.0513
" />
<path d="M102.4321 31.0513
L102.3717 30.9303
" />
<path d="M102.3717 30.9303
L102.3717 30.8093
" />
<path d="M102.3717 30.8093
L102.4321 30.6884
" />
<path d="M102.4321 30.6884
L102.5531 30.6279
" />
<path d="M102.5531 30.6279
L102.8555 30.6279
" />
<path d="M102.8555 30.6279
L102.9764 30.5674
" />
<path d="M104.1254 31.1117
L104.1254 29.8417
" />
<path d="M104.1254 31.0513
L104.0045 31.1117
" />
<path d="M104.0045 31.1117
L103.7626 31.1117
" />
<path d="M103.7626 31.1117
L103.6416 31.0513
" />
<path d="M103.6416 31.0513
L103.5811 30.9908
" />
<path d="M103.5811 30.9908
L103.5207 30.8698
" />
<path d="M103.5207 30.8698
L103.5207 30.5070
" />
<path d="M103.5207 30.5070
L103.5811 30.3860
" />
<path d="M103.5811 30.3860
L103.6416 30.3255
" />
<path d="M103.6416 30.3255
L103.7626 30.2651
" />
<path d="M103.7626 30.2651
L104.0045 30.2651
" />
<path d="M104.0045 30.2651
L104.1254 30.3255
" />
<path d="M104.4278 31.2327
L105.3954 31.2327
" />
<path d="M105.6373 31.0513
L105.7582 31.1117
" />
<path d="M105.7582 31.1117
L106.0001 31.1117
" />
<path d="M106.0001 31.1117
L106.1211 31.0513
" />
<path d="M106.1211 31.0513
L106.1815 30.9303
" />
<path d="M106.1815 30.9303
L106.1815 30.8698
" />
<path d="M106.1815 30.8698
L106.1211 30.7489
" />
<path d="M106.1211 30.7489
L106.0001 30.6884
" />
<path d="M106.0001 30.6884
L105.8187 30.6884
" />
<path d="M105.8187 30.6884
L105.6977 30.6279
" />
<path d="M105.6977 30.6279
L105.6373 30.5070
" />
<path d="M105.6373 30.5070
L105.6373 30.4465
" />
<path d="M105.6373 30.4465
L105.6977 30.3255
" />
<path d="M105.6977 30.3255
L105.8187 30.2651
" />
<path d="M105.8187 30.2651
L106.0001 30.2651
" />
<path d="M106.0001 30.2651
L106.1211 30.3255
" />
<path d="M107.2701 31.0513
L107.1492 31.1117
" />
<path d="M107.1492 31.1117
L106.9073 31.1117
" />
<path d="M106.9073 31.1117
L106.7863 31.0513
" />
<path d="M106.7863 31.0513
L106.7258 30.9908
" />
<path d="M106.7258 30.9908
L106.6654 30.8698
" />
<path d="M106.6654 30.8698
L106.6654 30.5070
" />
<path d="M106.6654 30.5070
L106.7258 30.3860
" />
<path d="M106.7258 30.3860
L106.7863 30.3255
" />
<path d="M106.7863 30.3255
L106.9073 30.2651
" />
<path d="M106.9073 30.2651
L107.1492 30.2651
" />
<path d="M107.1492 30.2651
L107.2701 30.3255
" />
<path d="M107.8144 31.1117
L107.8144 29.8417
" />
<path d="M108.3587 31.1117
L108.3587 30.4465
" />
<path d="M108.3587 30.4465
L108.2982 30.3255
" />
<path d="M108.2982 30.3255
L108.1773 30.2651
" />
<path d="M108.1773 30.2651
L107.9959 30.2651
" />
<path d="M107.9959 30.2651
L107.8749 30.3255
" />
<path d="M107.8749 30.3255
L107.8144 30.3860
" />
</g></g> 
</svg>
